<svg class="icon icon-cart" xmlns="http://www.w3.org/2000/svg" width="24" height="24" viewBox="0 0 24 24" fill="none">
<path fill-rule="evenodd" clip-rule="evenodd" d="M8.17458 5H5.62949L5.00932 14.5868C4.97178 15.1519 5.04788 15.7189 5.23287 16.2526C5.41786 16.7863 5.70781 17.2752 6.0847 17.6891C6.46159 18.1029 6.91738 18.4329 7.42376 18.6584C7.93014 18.8839 8.4763 19.0002 9.02831 19H14.9722C15.5235 19.0001 16.069 18.8841 16.5748 18.659C17.0806 18.434 17.536 18.1049 17.9127 17.6919C18.2895 17.2789 18.5796 16.791 18.7651 16.2583C18.9507 15.7256 19.0276 15.1595 18.9912 14.595L18.363 5H8.17458ZM8.17458 5.82645H6.38657L5.81473 14.6446C5.78494 15.0965 5.84594 15.5497 5.99394 15.9764C6.14194 16.403 6.37379 16.7939 6.67511 17.1248C6.97642 17.4557 7.34078 17.7195 7.74558 17.8999C8.15038 18.0803 8.58698 18.1735 9.02831 18.1736H14.9722C15.4142 18.1746 15.8517 18.0823 16.2575 17.9024C16.6632 17.7225 17.0286 17.4588 17.3307 17.1278C17.6329 16.7968 17.8655 16.4055 18.014 15.9783C18.1625 15.5511 18.2237 15.0971 18.1939 14.6446L17.614 5.82645H15.826V6.34711C15.826 6.86263 15.727 7.3731 15.5347 7.84938C15.3425 8.32565 15.0607 8.75841 14.7054 9.12294C14.3502 9.48747 13.9285 9.77663 13.4643 9.97391C13.0001 10.1712 12.5027 10.2727 12.0003 10.2727C11.4979 10.2727 11.0004 10.1712 10.5362 9.97391C10.0721 9.77663 9.65035 9.48747 9.2951 9.12294C8.93985 8.75841 8.65805 8.32565 8.46579 7.84938C8.27353 7.3731 8.17458 6.86263 8.17458 6.34711V5.82645ZM15.0206 5.82645H8.97999V6.34711C8.97999 7.16906 9.29819 7.95735 9.86461 8.53855C10.431 9.11976 11.1992 9.44628 12.0003 9.44628C12.8013 9.44628 13.5695 9.11976 14.1359 8.53855C14.7023 7.95735 15.0206 7.16906 15.0206 6.34711V5.82645Z" fill="currentColor"/>
</svg>