<svg class="icon icon-tiktok" xmlns="http://www.w3.org/2000/svg" width="24" height="24" viewBox="0 0 24 24" fill="none">
  <path d="M18.4215 5.70973C17.2905 4.97248 16.4738 3.79198 16.2195 2.41648C16.1648 2.11948 16.134 1.81348 16.134 1.50073H12.5235L12.5175 15.9697C12.4568 17.5897 11.1233 18.8902 9.48826 18.8902C8.98051 18.8902 8.50201 18.7635 8.08051 18.5415C7.11451 18.033 6.45376 17.0205 6.45376 15.855C6.45376 14.1817 7.81501 12.8197 9.48826 12.8197C9.80101 12.8197 10.1003 12.8715 10.3838 12.96V9.27448C10.0905 9.23473 9.79276 9.20923 9.48826 9.20923C5.82376 9.20923 2.84326 12.1905 2.84326 15.8542C2.84326 18.1027 3.96676 20.0917 5.68051 21.2947C6.75976 22.0522 8.07301 22.4992 9.48901 22.4992C13.1535 22.4992 16.134 19.518 16.134 15.8542V8.51773C17.55 9.53398 19.2848 10.1332 21.1568 10.1332V6.52273C20.148 6.52273 19.209 6.22348 18.4215 5.70973Z" fill="currentColor"/>
</svg>