<svg width="97" height="17" viewBox="0 0 97 17" fill="none" xmlns="http://www.w3.org/2000/svg">
<g clip-path="url(#clip0_1_157)">
<path d="M8.49998 13.8064L4.17522 16.3773C4.03025 16.4725 3.87716 16.5123 3.71595 16.4967C3.55475 16.4807 3.40978 16.4331 3.28104 16.3539C3.15231 16.2587 3.05566 16.1396 2.9911 15.9968C2.92654 15.854 2.91842 15.6952 2.96675 15.5203L4.10274 10.6642L0.284792 7.37914C0.139821 7.26831 0.0512926 7.13748 0.0192058 6.98665C-0.012881 6.83583 -0.00476265 6.689 0.0435609 6.54617C0.0918844 6.40335 0.172295 6.28432 0.284792 6.1891C0.397676 6.09389 0.550763 6.03047 0.744057 5.99886L5.79367 5.57038L7.75078 0.975901C7.81534 0.817077 7.9201 0.698054 8.06507 0.618833C8.21004 0.539611 8.35501 0.5 8.49998 0.5C8.64495 0.5 8.78993 0.539611 8.9349 0.618833C9.07987 0.698054 9.18466 0.817077 9.24922 0.975901L11.2063 5.57038L16.2559 5.99886C16.4492 6.03047 16.6023 6.09389 16.7152 6.1891C16.8277 6.28432 16.9081 6.40335 16.9564 6.54617C17.0048 6.689 17.0129 6.83583 16.9808 6.98665C16.9487 7.13748 16.8602 7.26831 16.7152 7.37914L12.8973 10.6642L14.0332 15.5203C14.0816 15.6952 14.0735 15.854 14.0089 15.9968C13.9443 16.1396 13.8477 16.2587 13.719 16.3539C13.5902 16.4331 13.4452 16.4807 13.284 16.4967C13.1228 16.5123 12.9697 16.4725 12.8248 16.3773L8.49998 13.8064Z" fill="#FFA900"/>
<path d="M28.5 13.8064L24.1752 16.3773C24.0303 16.4725 23.8772 16.5123 23.716 16.4967C23.5548 16.4807 23.4098 16.4331 23.281 16.3539C23.1523 16.2587 23.0557 16.1396 22.9911 15.9968C22.9265 15.854 22.9184 15.6952 22.9668 15.5203L24.1027 10.6642L20.2848 7.37914C20.1398 7.26831 20.0513 7.13748 20.0192 6.98665C19.9871 6.83583 19.9952 6.689 20.0436 6.54617C20.0919 6.40335 20.1723 6.28432 20.2848 6.1891C20.3977 6.09389 20.5508 6.03047 20.7441 5.99886L25.7937 5.57038L27.7508 0.975901C27.8154 0.817077 27.9201 0.698054 28.0651 0.618833C28.2101 0.539611 28.355 0.5 28.5 0.5C28.645 0.5 28.7899 0.539611 28.9349 0.618833C29.0799 0.698054 29.1847 0.817077 29.2492 0.975901L31.2063 5.57038L36.2559 5.99886C36.4492 6.03047 36.6023 6.09389 36.7152 6.1891C36.8277 6.28432 36.9081 6.40335 36.9564 6.54617C37.0048 6.689 37.0129 6.83583 36.9808 6.98665C36.9487 7.13748 36.8602 7.26831 36.7152 7.37914L32.8973 10.6642L34.0332 15.5203C34.0816 15.6952 34.0735 15.854 34.0089 15.9968C33.9443 16.1396 33.8477 16.2587 33.719 16.3539C33.5902 16.4331 33.4452 16.4807 33.284 16.4967C33.1228 16.5123 32.9697 16.4725 32.8248 16.3773L28.5 13.8064Z" fill="#FFA900"/>
<path d="M48.5 13.8064L44.1752 16.3773C44.0303 16.4725 43.8772 16.5123 43.716 16.4967C43.5548 16.4807 43.4098 16.4331 43.281 16.3539C43.1523 16.2587 43.0557 16.1396 42.9911 15.9968C42.9265 15.854 42.9184 15.6952 42.9668 15.5203L44.1027 10.6642L40.2848 7.37914C40.1398 7.26831 40.0513 7.13748 40.0192 6.98665C39.9871 6.83583 39.9952 6.689 40.0436 6.54617C40.0919 6.40335 40.1723 6.28432 40.2848 6.1891C40.3977 6.09389 40.5508 6.03047 40.7441 5.99886L45.7937 5.57038L47.7508 0.975901C47.8154 0.817077 47.9201 0.698054 48.0651 0.618833C48.2101 0.539611 48.355 0.5 48.5 0.5C48.645 0.5 48.7899 0.539611 48.9349 0.618833C49.0799 0.698054 49.1847 0.817077 49.2492 0.975901L51.2063 5.57038L56.2559 5.99886C56.4492 6.03047 56.6023 6.09389 56.7152 6.1891C56.8277 6.28432 56.9081 6.40335 56.9564 6.54617C57.0048 6.689 57.0129 6.83583 56.9808 6.98665C56.9487 7.13748 56.8602 7.26831 56.7152 7.37914L52.8973 10.6642L54.0332 15.5203C54.0816 15.6952 54.0735 15.854 54.0089 15.9968C53.9443 16.1396 53.8477 16.2587 53.719 16.3539C53.5902 16.4331 53.4452 16.4807 53.284 16.4967C53.1228 16.5123 52.9697 16.4725 52.8248 16.3773L48.5 13.8064Z" fill="#FFA900"/>
<path d="M68.5 13.8064L64.1752 16.3773C64.0303 16.4725 63.8772 16.5123 63.716 16.4967C63.5548 16.4807 63.4098 16.4331 63.281 16.3539C63.1523 16.2587 63.0557 16.1396 62.9911 15.9968C62.9265 15.854 62.9184 15.6952 62.9668 15.5203L64.1027 10.6642L60.2848 7.37914C60.1398 7.26831 60.0513 7.13748 60.0192 6.98665C59.9871 6.83583 59.9952 6.689 60.0436 6.54617C60.0919 6.40335 60.1723 6.28432 60.2848 6.1891C60.3977 6.09389 60.5508 6.03047 60.7441 5.99886L65.7937 5.57038L67.7508 0.975901C67.8154 0.817077 67.9201 0.698054 68.0651 0.618833C68.2101 0.539611 68.355 0.5 68.5 0.5C68.645 0.5 68.7899 0.539611 68.9349 0.618833C69.0799 0.698054 69.1846 0.817077 69.2492 0.975901L71.2063 5.57038L76.2559 5.99886C76.4492 6.03047 76.6023 6.09389 76.7152 6.1891C76.8277 6.28432 76.9081 6.40335 76.9564 6.54617C77.0048 6.689 77.0129 6.83583 76.9808 6.98665C76.9487 7.13748 76.8602 7.26831 76.7152 7.37914L72.8973 10.6642L74.0332 15.5203C74.0816 15.6952 74.0734 15.854 74.0089 15.9968C73.9443 16.1396 73.8477 16.2587 73.719 16.3539C73.5902 16.4331 73.4452 16.4807 73.284 16.4967C73.1228 16.5123 72.9697 16.4725 72.8248 16.3773L68.5 13.8064Z" fill="#FFA900"/>
<path d="M88.5 13.8064L84.1752 16.3773C84.0303 16.4725 83.8772 16.5123 83.716 16.4967C83.5548 16.4807 83.4098 16.4331 83.281 16.3539C83.1523 16.2587 83.0557 16.1396 82.9911 15.9968C82.9265 15.854 82.9184 15.6952 82.9668 15.5203L84.1027 10.6642L80.2848 7.37914C80.1398 7.26831 80.0513 7.13748 80.0192 6.98665C79.9871 6.83583 79.9952 6.689 80.0436 6.54617C80.0919 6.40335 80.1723 6.28432 80.2848 6.1891C80.3977 6.09389 80.5508 6.03047 80.7441 5.99886L85.7937 5.57038L87.7508 0.975901C87.8154 0.817077 87.9201 0.698054 88.0651 0.618833C88.2101 0.539611 88.355 0.5 88.5 0.5C88.645 0.5 88.7899 0.539611 88.9349 0.618833C89.0799 0.698054 89.1846 0.817077 89.2492 0.975901L91.2063 5.57038L96.2559 5.99886C96.4492 6.03047 96.6023 6.09389 96.7152 6.1891C96.8277 6.28432 96.9081 6.40335 96.9564 6.54617C97.0048 6.689 97.0129 6.83583 96.9808 6.98665C96.9487 7.13748 96.8602 7.26831 96.7152 7.37914L92.8973 10.6642L94.0332 15.5203C94.0816 15.6952 94.0734 15.854 94.0089 15.9968C93.9443 16.1396 93.8477 16.2587 93.719 16.3539C93.5902 16.4331 93.4452 16.4807 93.284 16.4967C93.1228 16.5123 92.9697 16.4725 92.8248 16.3773L88.5 13.8064Z" fill="#FFA900"/>
</g>
<defs>
<clipPath id="clip0_1_157">
<rect width="97" height="17" fill="white"/>
</clipPath>
</defs>
</svg>
